<svg viewBox="0 0 260 72" fill="none" xmlns="http://www.w3.org/2000/svg">
  <!-- N -->
  <path d="M12 56V16h7.5l18 26.4V16H45v40h-7.5L19.5 29.6V56H12z" fill="white"/>
  <!-- O -->
  <path d="M52 36c0-12.2 8.6-21 20-21s20 8.8 20 21-8.6 21-20 21S52 48.2 52 36zm31.4 0c0-8.4-4.8-14-11.4-14S60.6 27.6 60.6 36s4.8 14 11.4 14 11.4-5.6 11.4-14z" fill="white"/>
  <!-- Slash mark — diagonal speed line -->
  <line x1="94" y1="62" x2="148" y2="10" stroke="white" stroke-width="3.5" stroke-linecap="round"/>
  <!-- V -->
  <path d="M148 16h8.6l11.4 30.8L179.4 16H188l-16 40h-8z" fill="white"/>
  <!-- A -->
  <path d="M195.6 56l16-40h8.4l16 40h-8.2l-3.4-8.8H207l-3.4 8.8h-8zm14-15.2h10.8L215.8 24l-6.2 16.8z" fill="white"/>
  <!-- TM mark -->
  <text x="238" y="20" font-family="system-ui,sans-serif" font-size="8" font-weight="600" fill="white" opacity="0.7">TM</text>
</svg>
