<svg viewBox="0 0 272 72" fill="none" xmlns="http://www.w3.org/2000/svg">
  <!-- N -->
  <path d="M12 56V16h7.5l18 26.4V16H45v40h-7.5L19.5 29.6V56H12z" fill="white"/>
  <!-- O -->
  <path d="M52 36c0-12.2 8.6-21 20-21s20 8.8 20 21-8.6 21-20 21S52 48.2 52 36zm31.4 0c0-8.4-4.8-14-11.4-14S60.6 27.6 60.6 36s4.8 14 11.4 14 11.4-5.6 11.4-14z" fill="white"/>
  <!-- V -->
  <path d="M100 16h8.6l11.4 30.8L131.4 16H140l-16 40h-8z" fill="white"/>
  <!-- Diagonal slash — brand signature mark through the V -->
  <line x1="135" y1="8" x2="108" y2="68" stroke="white" stroke-width="3.5" stroke-linecap="round"/>
  <!-- A -->
  <path d="M147.6 56l16-40h8.4l16 40h-8.2l-3.4-8.8H159l-3.4 8.8h-8zm14-15.2h10.8L167.8 24l-6.2 16.8z" fill="white"/>
  <!-- X -->
  <path d="M198 16 L207 16 L233 56 L224 56 Z" fill="white"/>
  <path d="M224 16 L233 16 L207 56 L198 56 Z" fill="white"/>
  <!-- TM mark -->
  <text x="237" y="20" font-family="system-ui,sans-serif" font-size="8" font-weight="600" fill="white" opacity="0.65">TM</text>
</svg>
